<svg width="800" height="450" viewBox="0 0 800 450" fill="none" xmlns="http://www.w3.org/2000/svg">
  <!-- Definitions -->
  <defs>
    <linearGradient id="skyGradient" x1="0" y1="0" x2="0" y2="300" gradientUnits="userSpaceOnUse">
      <stop offset="0" stop-color="#0C4A6E"/>
      <stop offset="1" stop-color="#0EA5E9"/>
    </linearGradient>
    <linearGradient id="desertGradient" x1="0" y1="300" x2="0" y2="450" gradientUnits="userSpaceOnUse">
      <stop offset="0" stop-color="#FCD34D"/>
      <stop offset="1" stop-color="#F59E0B"/>
    </linearGradient>
    <linearGradient id="solarPanelGradient" x1="0" y1="0" x2="0" y2="1" gradientUnits="userSpaceOnUse">
      <stop offset="0" stop-color="#1E40AF"/>
      <stop offset="1" stop-color="#1E3A8A"/>
    </linearGradient>
    <linearGradient id="windTurbineGradient" x1="0" y1="0" x2="0" y2="1" gradientUnits="userSpaceOnUse">
      <stop offset="0" stop-color="#F8FAFC"/>
      <stop offset="1" stop-color="#CBD5E1"/>
    </linearGradient>
    <pattern id="solarPattern" width="40" height="40" patternUnits="userSpaceOnUse">
      <rect width="38" height="38" x="1" y="1" fill="#1E40AF" stroke="#60A5FA" stroke-width="0.5"/>
      <line x1="1" y1="1" x2="39" y2="39" stroke="#60A5FA" stroke-width="0.5"/>
      <line x1="39" y1="1" x2="1" y2="39" stroke="#60A5FA" stroke-width="0.5"/>
    </pattern>
    <filter id="glow" x="-50%" y="-50%" width="200%" height="200%">
      <feGaussianBlur stdDeviation="2" result="blur"/>
      <feComposite in="SourceGraphic" in2="blur" operator="over"/>
    </filter>
  </defs>
  
  <!-- Background -->
  <rect width="800" height="300" fill="url(#skyGradient)"/>
  <rect y="300" width="800" height="150" fill="url(#desertGradient)"/>
  
  <!-- Sun -->
  <circle cx="650" cy="100" r="50" fill="#FBBF24" opacity="0.9"/>
  <circle cx="650" cy="100" r="60" fill="#FBBF24" opacity="0.5"/>
  <circle cx="650" cy="100" r="70" fill="#FBBF24" opacity="0.2"/>
  
  <!-- Sun rays -->
  <g stroke="#FBBF24" stroke-width="2" opacity="0.7">
    <line x1="650" y1="20" x2="650" y2="40"/>
    <line x1="650" y1="160" x2="650" y2="180"/>
    <line x1="570" y1="100" x2="590" y2="100"/>
    <line x1="710" y1="100" x2="730" y2="100"/>
    <line x1="590" y1="40" x2="610" y2="60"/>
    <line x1="690" y1="140" x2="710" y2="160"/>
    <line x1="590" y1="160" x2="610" y2="140"/>
    <line x1="690" y1="60" x2="710" y2="40"/>
  </g>
  
  <!-- Desert dunes -->
  <path d="M0 350 Q100 320, 200 350 T400 350 T600 350 T800 350" fill="#F59E0B" opacity="0.7"/>
  <path d="M0 380 Q150 340, 300 380 T600 380 T800 380" fill="#F59E0B" opacity="0.5"/>
  
  <!-- Solar farm (left side) -->
  <g>
    <rect x="50" y="320" width="250" height="100" fill="url(#solarPattern)" opacity="0.9"/>
    
    <!-- Individual panels -->
    <g opacity="0.9">
      <rect x="60" y="330" width="40" height="40" fill="url(#solarPanelGradient)" stroke="#60A5FA" stroke-width="0.5"/>
      <rect x="110" y="330" width="40" height="40" fill="url(#solarPanelGradient)" stroke="#60A5FA" stroke-width="0.5"/>
      <rect x="160" y="330" width="40" height="40" fill="url(#solarPanelGradient)" stroke="#60A5FA" stroke-width="0.5"/>
      <rect x="210" y="330" width="40" height="40" fill="url(#solarPanelGradient)" stroke="#60A5FA" stroke-width="0.5"/>
      
      <rect x="60" y="380" width="40" height="40" fill="url(#solarPanelGradient)" stroke="#60A5FA" stroke-width="0.5"/>
      <rect x="110" y="380" width="40" height="40" fill="url(#solarPanelGradient)" stroke="#60A5FA" stroke-width="0.5"/>
      <rect x="160" y="380" width="40" height="40" fill="url(#solarPanelGradient)" stroke="#60A5FA" stroke-width="0.5"/>
      <rect x="210" y="380" width="40" height="40" fill="url(#solarPanelGradient)" stroke="#60A5FA" stroke-width="0.5"/>
    </g>
    
    <!-- Control building -->
    <rect x="280" y="350" width="30" height="20" fill="#0F172A"/>
    <rect x="285" y="355" width="10" height="10" fill="#60A5FA" opacity="0.7"/>
  </g>
  
  <!-- Wind turbines (right side) -->
  <g>
    <!-- Turbine 1 -->
    <g transform="translate(500, 350)">
      <line x1="0" y1="0" x2="0" y2="-150" stroke="url(#windTurbineGradient)" stroke-width="5"/>
      <circle cx="0" cy="-150" r="10" fill="#CBD5E1"/>
      
      <!-- Blades -->
      <g transform="rotate(0)">
        <path d="M0 -150 L-10 -150 L-80 -220 L-70 -230 Z" fill="url(#windTurbineGradient)"/>
      </g>
      <g transform="rotate(120)">
        <path d="M0 -150 L-10 -150 L-80 -220 L-70 -230 Z" fill="url(#windTurbineGradient)"/>
      </g>
      <g transform="rotate(240)">
        <path d="M0 -150 L-10 -150 L-80 -220 L-70 -230 Z" fill="url(#windTurbineGradient)"/>
      </g>
    </g>
    
    <!-- Turbine 2 -->
    <g transform="translate(600, 330)">
      <line x1="0" y1="0" x2="0" y2="-120" stroke="url(#windTurbineGradient)" stroke-width="4"/>
      <circle cx="0" cy="-120" r="8" fill="#CBD5E1"/>
      
      <!-- Blades -->
      <g transform="rotate(30)">
        <path d="M0 -120 L-8 -120 L-60 -180 L-52 -188 Z" fill="url(#windTurbineGradient)"/>
      </g>
      <g transform="rotate(150)">
        <path d="M0 -120 L-8 -120 L-60 -180 L-52 -188 Z" fill="url(#windTurbineGradient)"/>
      </g>
      <g transform="rotate(270)">
        <path d="M0 -120 L-8 -120 L-60 -180 L-52 -188 Z" fill="url(#windTurbineGradient)"/>
      </g>
    </g>
    
    <!-- Turbine 3 -->
    <g transform="translate(700, 340)">
      <line x1="0" y1="0" x2="0" y2="-100" stroke="url(#windTurbineGradient)" stroke-width="3"/>
      <circle cx="0" cy="-100" r="6" fill="#CBD5E1"/>
      
      <!-- Blades -->
      <g transform="rotate(60)">
        <path d="M0 -100 L-6 -100 L-50 -150 L-44 -156 Z" fill="url(#windTurbineGradient)"/>
      </g>
      <g transform="rotate(180)">
        <path d="M0 -100 L-6 -100 L-50 -150 L-44 -156 Z" fill="url(#windTurbineGradient)"/>
      </g>
      <g transform="rotate(300)">
        <path d="M0 -100 L-6 -100 L-50 -150 L-44 -156 Z" fill="url(#windTurbineGradient)"/>
      </g>
    </g>
  </g>
  
  <!-- Smart grid elements -->
  <!-- Power lines -->
  <g stroke="#94A3B8" stroke-width="1">
    <line x1="300" y1="360" x2="400" y2="360"/>
    <line x1="400" y1="360" x2="500" y2="350"/>
    <line x1="400" y1="360" x2="600" y2="330"/>
    <line x1="400" y1="360" x2="700" y2="340"/>
  </g>
  
  <!-- Power poles -->
  <g>
    <line x1="400" y1="360" x2="400" y2="330" stroke="#64748B" stroke-width="2"/>
    <line x1="390" y1="330" x2="410" y2="330" stroke="#64748B" stroke-width="2"/>
  </g>
  
  <!-- Energy flow visualization -->
  <g stroke="#60A5FA" stroke-width="2" stroke-dasharray="5,5" filter="url(#glow)">
    <path d="M175 350 C250 300, 325 300, 400 360" opacity="0.6"/>
    <path d="M500 350 C475 320, 450 320, 400 360" opacity="0.6"/>
    <path d="M600 330 C550 320, 450 320, 400 360" opacity="0.6"/>
    <path d="M700 340 C650 320, 450 320, 400 360" opacity="0.6"/>
  </g>
  
  <!-- Central control station -->
  <g transform="translate(400, 360)">
    <rect x="-20" y="-30" width="40" height="30" fill="#0F172A"/>
    <rect x="-15" y="-25" width="30" height="20" fill="#0EA5E9" opacity="0.3"/>
    <circle cx="0" cy="-15" r="5" fill="#60A5FA" filter="url(#glow)"/>
  </g>
  
  <!-- Data visualization elements -->
  <g transform="translate(400, 200)">
    <!-- Energy output graph -->
    <rect x="-100" y="-50" width="200" height="100" fill="#0F172A" opacity="0.7" rx="10"/>
    
    <!-- Graph lines -->
    <polyline points="-80,-20 -60,0 -40,-10 -20,10 0,-30 20,0 40,-20 60,10 80,-10" 
              stroke="#10B981" stroke-width="2" fill="none"/>
    
    <polyline points="-80,20 -60,10 -40,30 -20,20 0,40 20,20 40,30 60,10 80,20" 
              stroke="#60A5FA" stroke-width="2" fill="none"/>
    
    <!-- Labels -->
    <text x="0" y="-35" font-family="Arial" font-size="10" text-anchor="middle" fill="white">Energy Output</text>
    <circle cx="-90" cy="-10" r="3" fill="#10B981"/>
    <text x="-85" y="-10" font-family="Arial" font-size="8" fill="white">Solar</text>
    <circle cx="-90" cy="30" r="3" fill="#60A5FA"/>
    <text x="-85" y="30" font-family="Arial" font-size="8" fill="white">Wind</text>
  </g>
  
  <!-- Title -->
  <text x="400" y="420" font-family="Arial" font-size="24" font-weight="bold" text-anchor="middle" fill="#0F172A">MENA Green Energy Initiative</text>
</svg> 