<svg width="200" height="60" viewBox="0 0 200 60" fill="none" xmlns="http://www.w3.org/2000/svg">
  <rect width="200" height="60" fill="#FFFFFF"/>
  <g transform="translate(20, 15)">
    <!-- Amazon Global Logistics logo -->
    <path d="M15 0C6.71573 0 0 6.71573 0 15C0 23.2843 6.71573 30 15 30C23.2843 30 30 23.2843 30 15C30 6.71573 23.2843 0 15 0ZM15 5C20.5228 5 25 9.47715 25 15C25 20.5228 20.5228 25 15 25C9.47715 25 5 20.5228 5 15C5 9.47715 9.47715 5 15 5Z" fill="#FF9900"/>
    <path d="M8 15L15 8L22 15L15 22L8 15Z" fill="#FF9900"/>
    <text x="40" y="15" font-family="Arial" font-weight="bold" font-size="10" fill="#232F3E">AMAZON GLOBAL</text>
    <text x="40" y="25" font-family="Arial" font-weight="bold" font-size="10" fill="#232F3E">LOGISTICS</text>
  </g>
</svg> 