<svg width="200" height="60" viewBox="0 0 200 60" fill="none" xmlns="http://www.w3.org/2000/svg">
  <rect width="200" height="60" fill="#FFFFFF"/>
  <g transform="translate(30, 15)">
    <!-- C -->
    <path d="M0 15C0 6.71573 6.71573 0 15 0H20V8H15C11.134 8 8 11.134 8 15C8 18.866 11.134 22 15 22H20V30H15C6.71573 30 0 23.2843 0 15Z" fill="#005594"/>
    <!-- N -->
    <path d="M30 0H38V22L53 0H60V30H52V8L37 30H30V0Z" fill="#005594"/>
    <!-- B -->
    <path d="M70 0H85C89.9706 0 94 4.02944 94 9V9C94 11.7614 92.1046 14.1414 89.5 15C92.1046 15.8586 94 18.2386 94 21V21C94 25.9706 89.9706 30 85 30H70V0ZM78 8V12H85C85.5523 12 86 11.5523 86 11V9C86 8.44772 85.5523 8 85 8H78ZM78 20V22H85C85.5523 22 86 21.5523 86 21V21C86 20.4477 85.5523 20 85 20H78Z" fill="#005594"/>
    <!-- C -->
    <path d="M104 15C104 6.71573 110.716 0 119 0H124V8H119C115.134 8 112 11.134 112 15C112 18.866 115.134 22 119 22H124V30H119C110.716 30 104 23.2843 104 15Z" fill="#005594"/>
  </g>
</svg> 