<svg width="200" height="60" viewBox="0 0 200 60" fill="none" xmlns="http://www.w3.org/2000/svg">
  <rect width="200" height="60" fill="#FFFFFF"/>
  <g transform="translate(30, 15)">
    <!-- F -->
    <path d="M0 0H30V8H10V12H25V20H10V30H0V0Z" fill="#000000"/>
    <!-- O -->
    <path d="M35 15C35 6.71573 41.7157 0 50 0C58.2843 0 65 6.71573 65 15C65 23.2843 58.2843 30 50 30C41.7157 30 35 23.2843 35 15ZM45 15C45 17.7614 47.2386 20 50 20C52.7614 20 55 17.7614 55 15C55 12.2386 52.7614 10 50 10C47.2386 10 45 12.2386 45 15Z" fill="#000000"/>
    <!-- R -->
    <path d="M70 0H85C89.9706 0 94 4.02944 94 9V9C94 12.3137 91.9862 15.1599 89.1547 16.3823L95 30H84L79 18H80V30H70V0ZM80 8V10H85C85.5523 10 86 9.55228 86 9V9C86 8.44772 85.5523 8 85 8H80Z" fill="#000000"/>
    <!-- B -->
    <path d="M100 0H115C119.971 0 124 4.02944 124 9V9C124 11.7614 122.105 14.1414 119.5 15C122.105 15.8586 124 18.2386 124 21V21C124 25.9706 119.971 30 115 30H100V0ZM110 8V12H115C115.552 12 116 11.5523 116 11V9C116 8.44772 115.552 8 115 8H110ZM110 20V22H115C115.552 22 116 21.5523 116 21V21C116 20.4477 115.552 20 115 20H110Z" fill="#000000"/>
    <!-- E -->
    <path d="M130 0H160V8H140V12H155V18H140V22H160V30H130V0Z" fill="#000000"/>
    <!-- S -->
    <path d="M165 0H190V8H175V11H185V19H175V22H190V30H165V22L175 19V11L165 8V0Z" fill="#000000"/>
  </g>
</svg> 