<?xml version="1.0" encoding="UTF-8"?>
<svg width="800" height="600" viewBox="0 0 800 600" fill="none" xmlns="http://www.w3.org/2000/svg">
  <rect width="800" height="600" fill="#F5F5F5"/>
  <!-- Circuit board pattern -->
  <g stroke="#1A237E" stroke-width="2" opacity="0.1">
    <path d="M100 100 H700 M100 200 H700 M100 300 H700 M100 400 H700 M100 500 H700"/>
    <path d="M200 100 V500 M400 100 V500 M600 100 V500"/>
  </g>
  <!-- CPU icon -->
  <g transform="translate(350, 250)">
    <rect x="-50" y="-50" width="100" height="100" fill="#1A237E"/>
    <rect x="-30" y="-30" width="60" height="60" fill="none" stroke="#FFFFFF" stroke-width="2"/>
    <!-- Pins -->
    <g stroke="#FFFFFF" stroke-width="2">
      <line x1="-40" y1="-60" x2="-40" y2="-70"/>
      <line x1="-20" y1="-60" x2="-20" y2="-70"/>
      <line x1="0" y1="-60" x2="0" y2="-70"/>
      <line x1="20" y1="-60" x2="20" y2="-70"/>
      <line x1="40" y1="-60" x2="40" y2="-70"/>
      
      <line x1="-40" y1="60" x2="-40" y2="70"/>
      <line x1="-20" y1="60" x2="-20" y2="70"/>
      <line x1="0" y1="60" x2="0" y2="70"/>
      <line x1="20" y1="60" x2="20" y2="70"/>
      <line x1="40" y1="60" x2="40" y2="70"/>
    </g>
  </g>
</svg> 