<?xml version="1.0" encoding="UTF-8"?>
<svg width="800" height="450" viewBox="0 0 800 450" fill="none" xmlns="http://www.w3.org/2000/svg">
  <!-- Sky gradient background -->
  <defs>
    <linearGradient id="skyGradient" x1="0" y1="0" x2="0" y2="350" gradientUnits="userSpaceOnUse">
      <stop offset="0" stop-color="#F59E0B"/>
      <stop offset="0.6" stop-color="#FBBF24"/>
      <stop offset="1" stop-color="#FDE68A"/>
    </linearGradient>
    <linearGradient id="desertGradient" x1="0" y1="0" x2="800" y2="0" gradientUnits="userSpaceOnUse">
      <stop offset="0" stop-color="#D97706"/>
      <stop offset="0.5" stop-color="#F59E0B"/>
      <stop offset="1" stop-color="#D97706"/>
    </linearGradient>
    <pattern id="solarPattern" patternUnits="userSpaceOnUse" width="100" height="100" patternTransform="scale(0.5)">
      <rect width="90" height="90" x="5" y="5" rx="2" fill="#2563EB" stroke="#1E40AF" stroke-width="1"/>
      <rect width="80" height="80" x="10" y="10" rx="1" fill="#3B82F6" stroke="#1E40AF" stroke-width="0.5"/>
      <line x1="10" y1="50" x2="90" y2="50" stroke="#1E40AF" stroke-width="0.5"/>
      <line x1="50" y1="10" x2="50" y2="90" stroke="#1E40AF" stroke-width="0.5"/>
    </pattern>
  </defs>
  
  <!-- Background sky -->
  <rect width="800" height="450" fill="url(#skyGradient)"/>
  
  <!-- Desert landscape -->
  <path d="M0 300C100 280 200 320 300 290C400 270 500 310 600 280C700 260 800 290 800 290V450H0V300Z" fill="url(#desertGradient)"/>
  
  <!-- Mountains in background -->
  <path d="M0 300C50 250 100 280 150 240C200 200 250 230 300 200V300H0Z" fill="#B45309" fill-opacity="0.7"/>
  <path d="M500 300C550 240 600 270 650 220C700 180 750 210 800 190V300H500Z" fill="#B45309" fill-opacity="0.7"/>
  
  <!-- Solar farm - large array -->
  <g transform="translate(100, 320) rotate(-10)">
    <rect width="300" height="150" fill="url(#solarPattern)"/>
  </g>
  
  <!-- Solar farm - smaller array -->
  <g transform="translate(500, 340) rotate(5)">
    <rect width="200" height="100" fill="url(#solarPattern)"/>
  </g>
  
  <!-- Power lines and infrastructure -->
  <line x1="250" y1="350" x2="250" y2="250" stroke="#64748B" stroke-width="3"/>
  <line x1="550" y1="370" x2="550" y2="270" stroke="#64748B" stroke-width="3"/>
  <line x1="250" y1="250" x2="550" y2="270" stroke="#64748B" stroke-width="3"/>
  
  <!-- Power station -->
  <rect x="380" y="280" width="60" height="40" fill="#475569"/>
  <rect x="390" y="260" width="40" height="20" fill="#475569"/>
  <rect x="400" y="240" width="20" height="20" fill="#64748B"/>
  
  <!-- Sun -->
  <circle cx="700" cy="100" r="40" fill="#FEF3C7"/>
  <circle cx="700" cy="100" r="30" fill="#FBBF24"/>
  
  <!-- Sun rays -->
  <line x1="700" y1="40" x2="700" y2="20" stroke="#FBBF24" stroke-width="3"/>
  <line x1="700" y1="180" x2="700" y2="160" stroke="#FBBF24" stroke-width="3"/>
  <line x1="640" y1="100" x2="620" y2="100" stroke="#FBBF24" stroke-width="3"/>
  <line x1="780" y1="100" x2="760" y2="100" stroke="#FBBF24" stroke-width="3"/>
  <line x1="655" y1="55" x2="640" y2="40" stroke="#FBBF24" stroke-width="3"/>
  <line x1="745" y1="145" x2="760" y2="160" stroke="#FBBF24" stroke-width="3"/>
  <line x1="655" y1="145" x2="640" y2="160" stroke="#FBBF24" stroke-width="3"/>
  <line x1="745" y1="55" x2="760" y2="40" stroke="#FBBF24" stroke-width="3"/>
  
  <!-- Access roads -->
  <path d="M0 400H800" stroke="#D97706" stroke-width="5" stroke-dasharray="10 5"/>
  <path d="M250 400V350" stroke="#D97706" stroke-width="5" stroke-dasharray="10 5"/>
  <path d="M550 400V370" stroke="#D97706" stroke-width="5" stroke-dasharray="10 5"/>
  
  <!-- Maintenance vehicles -->
  <rect x="230" y="380" width="15" height="10" fill="#334155"/>
  <circle cx="235" cy="390" r="3" fill="#1E293B"/>
  <circle cx="245" cy="390" r="3" fill="#1E293B"/>
  
  <rect x="540" y="390" width="15" height="10" fill="#334155"/>
  <circle cx="545" cy="400" r="3" fill="#1E293B"/>
  <circle cx="555" cy="400" r="3" fill="#1E293B"/>
</svg> 